<svg width="100" height="55" xmlns="http://www.w3.org/2000/svg">
 <style type="text/css">.st0{fill:#FFFFFF;}
	.st1{fill:#098443;}
	.st2{fill:#FFFFFF;stroke:#FFFFFF;stroke-miterlimit:10;}</style>

 <g>
  <title>background</title>
  <rect fill="none" id="canvas_background" height="57" width="102" y="-1" x="-1"/>
 </g>
 <g>
  <title>Layer 1</title>
  <polygon id="svg_1" points="15.300018310546875,1.5000152587890625 2.1000213623046875,50.70001220703125 79.50003051757812,50.60002136230469 92.80001831054688,1.4000091552734375 " class="st0"/>
  <polygon id="svg_2" points="15.100021362304688,1.4000091552734375 12.000015258789062,13.000015258789062 38.70001220703125,13.000015258789062 38.70001220703125,16.20001220703125 11.100021362304688,16.20001220703125 10.000015258789062,20.400009155273438 28.500015258789062,20.400009155273438 28.500015258789062,23.600021362304688 9.100021362304688,23.600021362304688 8.000015258789062,27.600021362304688 20.300018310546875,27.600021362304688 20.300018310546875,30.900009155273438 7.20001220703125,30.900009155273438 1.800018310546875,50.60002136230469 82.50003051757812,50.60002136230469 95.80001831054688,1.4000091552734375 " class="st1"/>
  <path id="svg_3" d="m15.500015,44.200015l-2,-1.5c21.9,-30.6 53.7,-35.7 53.7,-35.7l0.5,2.3c-33.5,7.4 -52.2,34.9 -52.2,34.9" class="st2"/>
  <path id="svg_4" d="m57.000015,23.100015l1.9,0.2c0,0 -1.1,9.2 7.2,9l0,2c0,-0.1 -10,0.9 -9.1,-11.2" class="st2"/>
  <polygon id="svg_5" points="76.9000244140625,38.50001525878906 75.30001831054688,37.20001220703125 79.10000610351562,31.900009155273438 63.4000244140625,14.500015258789062 64.80001831054688,13.000015258789062 81.70001220703125,31.70001220703125 " class="st2"/>
 </g>
</svg>