<?xml version="1.0" encoding="utf-8"?>
<!-- Generator: Adobe Illustrator 19.1.0, SVG Export Plug-In . SVG Version: 6.00 Build 0)  -->
<svg version="1.1" id="Layer_1" xmlns="http://www.w3.org/2000/svg" xmlns:xlink="http://www.w3.org/1999/xlink" x="0px" y="0px"
	 viewBox="0 0 298 50" style="enable-background:new 0 0 298 50;" xml:space="preserve">
<style type="text/css">
	.st0{fill:#FFFFFF;}
	.st1{fill:#098443;}
	.st2{fill:#FFFFFF;stroke:#FFFFFF;stroke-miterlimit:10;}
</style>
<polygon class="st0" points="14.3,0.5 1.1,49.7 78.5,49.6 91.8,0.4 "/>
<polygon class="st1" points="14.1,0.4 11,12 37.7,12 37.7,15.2 10.1,15.2 9,19.4 27.5,19.4 27.5,22.6 8.1,22.6 7,26.6 19.3,26.6
	19.3,29.9 6.2,29.9 0.8,49.6 81.5,49.6 94.8,0.4 "/>
<path class="st2" d="M14.5,43.2l-2-1.5C34.4,11.1,66.2,6,66.2,6l0.5,2.3C33.2,15.7,14.5,43.2,14.5,43.2"/>
<path class="st2" d="M56,22.1l1.9,0.2c0,0-1.1,9.2,7.2,9l0,2C65.1,33.2,55.1,34.2,56,22.1"/>
<polygon class="st2" points="75.9,37.5 74.3,36.2 78.1,30.9 62.4,13.5 63.8,12 80.7,30.7 "/>
<path class="st0" d="M262,11.9c2.9,0,5.3,0.3,7.2,1.1c1.8,0.8,3.1,2.3,3.1,4.6h24.9c1.3-11.8-8.9-17.3-33.5-17.3
	c-5.1,0-10.5,0.4-15.7,1.5h-26.8l0,0h-9.4l-19.9,29.4h-0.2l-4.7-29.4h-24.3v0h-56.6l-3,11.6h21.6l-8.9,34.2H138l8.9-34.2h19.3
	l9.9,34.2h23.2l25.8-32c-1.8,2.6-3.2,5.7-4.1,9.2c-5.5,21.1,14.8,24.3,30.3,24.3c12.7,0,20.3-1.6,27.1-5.8l1.4,4.2h9.5l6.8-26.1
	h-31.4L261.8,32h9.1c-2.5,3.4-6.7,5.7-13.9,5.7c-10.9,0-15.3-4.5-13.1-12.9C246.3,15.6,253,11.9,262,11.9"/>
</svg>
