<?xml version="1.0" encoding="utf-8"?>
<!-- Generator: Adobe Illustrator 20.1.0, SVG Export Plug-In . SVG Version: 6.00 Build 0)  -->
<svg version="1.1" id="Layer_1" xmlns="http://www.w3.org/2000/svg" xmlns:xlink="http://www.w3.org/1999/xlink" x="0px" y="0px"
	 viewBox="0 0 48 25" style="enable-background:new 0 0 48 25;" xml:space="preserve">
<style type="text/css">
	.st0{fill:#FFFFFF;}
	.st1{fill:#098443;}
	.st2{fill:#FFFFFF;stroke:#FFFFFF;stroke-miterlimit:10;}
</style>
<polygon class="st0" points="41.1,25 0,25 6.9,0 48,0 "/>
<g>
	<polygon id="svg_2" class="st1" points="6.9,0 5.3,5.9 18.9,5.9 18.9,7.5 4.8,7.5 4.3,9.7 13.7,9.7 13.7,11.3 3.8,11.3 3.3,13.3 
		9.5,13.3 9.5,15 2.9,15 0.1,25 41.1,25 47.9,0 	"/>
	<path id="svg_3" class="st2" d="M7.1,21.7l-1-0.8C17.2,5.4,33.3,2.8,33.3,2.8L33.6,4C16.6,7.8,7.1,21.7,7.1,21.7"/>
	<path id="svg_4" class="st2" d="M28.2,11l1,0.1c0,0-0.6,4.7,3.7,4.6v1C32.8,16.7,27.7,17.2,28.2,11"/>
	<polygon id="svg_5" class="st2" points="38.3,18.9 37.5,18.2 39.4,15.5 31.4,6.7 32.1,5.9 40.7,15.4 	"/>
</g>
</svg>
